<svg class="logo-kasta" xmlns="http://www.w3.org/2000/svg" viewBox="0 0 104 32">
    <g>
        <path fill="#4FAB52"
              d="M83.264 30.858a14.212 14.212 0 0 1 3.082-15.742c4.3-4.252 10.639-5.266 15.924-3.047a14.212 14.212 0 0 1-3.082 15.742c-4.3 4.252-10.639 5.266-15.924 3.047zm3.86-3.816c.71.7 1.86.7 2.569 0a1.78 1.78 0 0 0 0-2.54 1.831 1.831 0 0 0-2.569 0 1.78 1.78 0 0 0 0 2.54z"></path>
        <path fill="#D10074"
              d="M86.166 11.816c-3.129 1.31-6.884.704-9.435-1.817A8.429 8.429 0 0 1 74.894.672c3.128-1.31 6.883-.705 9.434 1.817a8.429 8.429 0 0 1 1.838 9.327zM83.51 9.19a1.36 1.36 0 0 0 0-1.938 1.398 1.398 0 0 0-1.96 0 1.36 1.36 0 0 0 0 1.938 1.397 1.397 0 0 0 1.96 0z"></path>
        <path d="M73.072 30.536c-1.14.854-2.711 1.463-4.48 1.463-2.398 0-4.432-1.12-5.524-2.452-1.184-1.484-1.852-3.15-1.852-5.815 0-2.664.668-4.33 1.852-5.814 1.092-1.332 3.126-2.453 5.524-2.453 1.641 0 3.111.525 4.226 1.283v-1.283h3.188v12.258c0 .727.243 1 .88 1 .243 0 .486-.061.486-.061v2.786c-.638.272-.972.424-1.882.424-1.213 0-2.028-.564-2.418-1.336zm-.958-6.804c0-1.483-.213-2.967-1.124-3.967-.516-.545-1.366-.999-2.398-.999s-1.882.454-2.398 1c-.91.999-1.123 2.483-1.123 3.966 0 1.484.213 2.968 1.123 3.967.516.545 1.366 1 2.398 1s1.882-.455 2.398-1c.911-.999 1.124-2.483 1.124-3.967zM59.97 31.576a12.912 12.912 0 0 1-3.248.424c-3.187 0-4.765-1.817-4.765-4.845V19.16h-2.884v-3.119h2.884v-5.114h3.794v5.114h3.977v3.12h-3.977v7.66c0 1.212.547 1.727 1.76 1.727.79 0 1.427-.03 2.46-.152v3.18zM47.772 26.73c0 1.514-.546 2.635-1.366 3.453-1.275 1.271-3.248 1.816-5.403 1.816-2.003 0-3.794-.575-5.1-1.816-.91-.879-1.67-2.18-1.67-3.665h3.552c0 .697.365 1.454.85 1.848.607.484 1.306.696 2.398.696 1.275 0 3.218-.272 3.218-1.999 0-.908-.607-1.514-1.579-1.665-1.396-.212-2.974-.303-4.37-.606-2.156-.454-3.613-2.21-3.613-4.209 0-1.605.668-2.725 1.609-3.543 1.153-1 2.823-1.575 4.796-1.575 1.882 0 3.794.606 4.948 1.847.85.909 1.396 2.09 1.396 3.24h-3.612c0-.605-.273-1.09-.637-1.483-.456-.454-1.275-.727-2.065-.727-.546 0-1.062 0-1.639.242-.668.273-1.214.848-1.214 1.666 0 1.12.971 1.453 1.821 1.575 1.427.181 1.822.212 3.37.454 2.489.393 4.31 1.968 4.31 4.451zm-19.489 3.806a7.242 7.242 0 0 1-4.378 1.463c-2.344 0-4.332-1.12-5.4-2.452-1.157-1.484-1.81-3.15-1.81-5.815 0-2.664.653-4.33 1.81-5.814 1.068-1.332 3.056-2.453 5.4-2.453 1.603 0 3.04.525 4.13 1.283v-1.283h3.115v12.258c0 .727.238 1 .86 1 .238 0 .475-.061.475-.061v2.786c-.623.272-.949.424-1.839.424-1.186 0-1.981-.564-2.363-1.336zm-.69-6.804c0-1.483-.213-2.967-1.123-3.967-.516-.545-1.366-.999-2.398-.999-1.033 0-1.882.454-2.398 1-.911.999-1.124 2.483-1.124 3.966 0 1.484.213 2.968 1.124 3.967.516.545 1.365 1 2.398 1 1.032 0 1.882-.455 2.398-1 .91-.999 1.123-2.483 1.123-3.967zm-17.521-4.51L16.185 32h-4.44l-4.291-9.225-3.291 4.466V32H.395V10.927h3.768v10.057l7.436-10.057h4.586l-6.113 8.295z"></path>
    </g>
</svg>